<svg class="{{ with .class }}{{ . }} {{ end }}icon icon-dpsg" width="24" height="24" version="1.1" viewBox="0 0 384 374" xmlns="http://www.w3.org/2000/svg">
 <g transform="matrix(.088654 0 0 -.090057 3.8142e-5 379)" fill-rule="evenodd">
  <path d="m2166.5 4263.8c31.89 0 351.98 8.8 483.29-82.31 129.89-90.23 37.18-445.75 22.26-460.89-43.63-44.29 917.72-17.57 936.32-20.26 18.6-2.63 414.92-416.63 372.66-435.38-162.31-72.11-1299.9-114.57-1329.1-130.48-29.2-15.97-85.74-666.55-85.74-709.98 0-39.63 835.24 602.23 1260.6 621.61 290.95 13.23 403.03-285.2 426.03-368.63 25.66-93.18 99.69-339.52 72.75-725.3-12.63-180.94-135.23-891.78-512.7-1200.9-98.17-80.34-308.02-177.95-465-85.031-134.46 79.652-716.09 547.43-698.12 549.38 101.06 10.85 268.29-50.64 347.46 3.31 119.95 81.6 128.81 606.12 146.15 786.41 2.88 30.17-398.49-101.03-470.21-151.49-71.74-50.46-164.08-151.14-188.23-241.37-25.43-95.26 20.6-238.12-20.37-238.12h-596.18c-40.97 0 5.03 142.86-20.37 238.12-24.11 90.23-116.46 190.91-188.17 241.37-71.74 50.46-473.15 181.66-470.23 151.49 17.4-180.29 26.19-704.81 146.09-786.41 79.28-53.95 246.48 7.54 347.51-3.31 18.03-1.95-563.69-469.73-698.15-549.38-156.89-92.918-366.78 4.691-464.92 85.031-377.46 309.14-500.09 1020-512.78 1200.9-26.887 385.78 24.715 574.01 71.172 725.3 25.719 83.71 136.68 381.86 427.6 368.63 425.49-19.38 1260.6-661.24 1260.6-621.61 0 43.43-56.47 694.01-85.69 709.98-29.2 15.91-1166.8 58.37-1329.2 130.48-42.262 18.75 354.11 432.75 372.77 435.38 18.594 2.69 979.86-24.03 936.32 20.26-14.94 15.14-107.69 370.66 22.17 460.89 131.26 91.11 451.41 82.31 483.26 82.31"/>
  <path d="m2166.5 1256.4s-34.8 1.03 275.44 1.15c57.94 0 670.8-922.53 723.71-993.04 22.52-29.941-163.83-99.539-220.37-97.031-102.34 4.691-373.03 267.32-405.52 299.78-32.54 32.57 49.72-390.87 26.43-418.75-23.17-27.891-399.69-48.461-399.69-48.461s-376.37 20.57-399.68 48.461c-23.23 27.879 59 451.32 26.48 418.75-32.55-32.461-303.26-295.09-405.55-299.78-56.48-2.508-242.88 67.09-220.4 97.031 52.91 70.508 664.95 993.95 722.92 993.04 276.23 0 276.23-1.15 276.23-1.15"/>
 </g>
</svg>
