<?xml version="1.0" standalone="no"?>
<!DOCTYPE svg PUBLIC "-//W3C//DTD SVG 20010904//EN"
 "http://www.w3.org/TR/2001/REC-SVG-20010904/DTD/svg10.dtd">
<svg version="1.0" xmlns="http://www.w3.org/2000/svg"
 width="700.000000pt" height="700.000000pt" viewBox="0 0 700.000000 700.000000"
 preserveAspectRatio="xMidYMid meet">
<metadata>
Created by potrace 1.14, written by Peter Selinger 2001-2017
</metadata>
<g transform="translate(0.000000,700.000000) scale(0.100000,-0.100000)"
fill="#000000" stroke="none">
<path d="M3219 6936 c-2 -2 -35 -6 -74 -10 -100 -9 -130 -14 -220 -37 -201
-53 -262 -102 -298 -241 -16 -61 -20 -239 -7 -311 5 -23 11 -60 14 -82 9 -67
16 -97 35 -152 l18 -52 -29 -6 c-73 -17 -313 -22 -879 -19 l-616 3 -121 -122
c-119 -121 -202 -210 -278 -297 -21 -25 -41 -47 -44 -50 -16 -16 -91 -112
-117 -150 -47 -69 -46 -81 7 -97 25 -8 61 -16 80 -19 19 -3 73 -11 120 -19 95
-15 170 -24 335 -39 39 -4 86 -9 105 -11 19 -3 71 -7 115 -10 96 -6 189 -13
270 -20 74 -7 173 -13 285 -20 47 -3 114 -7 150 -10 36 -3 106 -7 155 -10 50
-3 115 -7 145 -10 30 -2 101 -7 158 -10 56 -4 110 -8 120 -10 9 -2 29 -4 44
-4 23 -1 29 -7 38 -42 12 -44 27 -126 35 -199 3 -25 8 -54 10 -66 3 -11 7 -50
10 -85 3 -36 7 -75 10 -88 2 -12 7 -59 11 -104 3 -45 8 -89 9 -97 2 -8 6 -53
10 -100 4 -47 8 -96 10 -108 3 -18 16 -199 17 -232 1 -20 -3 -30 -12 -30 -6 0
-99 57 -208 127 -446 286 -645 406 -892 540 -151 81 -384 192 -470 222 -19 7
-44 17 -55 22 -56 23 -185 60 -255 73 -19 3 -46 8 -60 11 -47 10 -176 7 -236
-5 -241 -50 -432 -259 -537 -585 -27 -84 -71 -255 -82 -315 -34 -197 -40 -286
-40 -555 1 -281 8 -374 45 -575 25 -130 24 -130 45 -215 9 -38 19 -81 21 -95
20 -102 133 -447 184 -565 227 -518 490 -825 805 -938 201 -72 364 -64 506 23
89 54 523 382 704 531 11 9 85 70 165 135 163 133 230 193 230 206 0 11 -171
-2 -285 -21 -45 -7 -156 -6 -196 2 -37 7 -81 31 -100 53 -58 70 -120 284 -143
489 -3 22 -7 65 -11 95 -9 84 -13 127 -20 220 -3 47 -8 105 -10 130 -2 25 -7
92 -11 150 -3 58 -7 120 -9 138 l-3 34 47 -7 c134 -19 538 -155 675 -228 80
-41 218 -179 279 -277 66 -108 77 -155 72 -334 -3 -89 -1 -156 6 -167 9 -18
29 -19 498 -19 405 0 491 2 500 14 8 10 10 59 8 162 -6 211 11 268 119 409
108 141 196 206 374 276 179 70 467 157 533 161 l42 3 -1 -40 c-1 -36 -4 -90
-19 -315 -7 -98 -14 -190 -20 -242 -3 -27 -7 -67 -10 -90 -14 -136 -52 -330
-81 -418 -34 -102 -68 -150 -129 -180 -42 -21 -62 -24 -140 -23 -50 0 -122 6
-160 12 -111 17 -225 23 -225 13 0 -33 860 -715 1080 -858 163 -105 324 -113
551 -28 253 95 492 349 685 727 53 105 148 321 158 362 2 6 6 17 9 25 85 223
197 709 215 935 14 176 7 553 -13 710 -6 47 -17 126 -21 140 -1 6 -5 28 -8 50
-10 64 -66 285 -88 350 -12 33 -37 92 -56 130 -107 215 -258 352 -439 401 -59
15 -200 21 -263 9 -376 -66 -817 -283 -1600 -787 -250 -160 -328 -208 -341
-208 -10 0 -7 124 6 225 2 17 6 68 9 115 4 47 8 96 11 110 2 14 6 57 10 95 7
86 12 130 30 270 8 61 17 130 20 155 6 53 9 70 25 133 11 43 15 47 44 48 17 0
39 2 48 4 9 2 63 6 120 10 57 3 126 8 153 10 28 2 93 7 145 10 52 3 120 7 150
10 30 2 102 7 160 10 58 3 125 7 150 9 25 3 86 8 135 11 50 4 113 8 140 11 28
2 84 6 125 9 41 3 98 8 125 10 28 3 70 7 95 10 246 24 393 45 503 71 37 9 70
20 73 25 20 34 -181 278 -476 577 l-115 117 -680 1 c-629 1 -742 3 -817 20
-32 7 -32 6 -13 61 29 83 53 256 54 375 0 227 -52 320 -209 377 -72 26 -161
48 -230 57 -30 3 -66 9 -80 11 -31 6 -645 15 -651 9z"/>
<path d="M3016 2054 c-48 -44 -201 -240 -346 -445 -68 -96 -142 -200 -164
-231 -23 -31 -61 -87 -86 -123 -25 -36 -68 -98 -95 -138 -28 -39 -103 -148
-166 -242 -64 -93 -142 -208 -174 -255 -112 -162 -106 -152 -93 -167 33 -40
208 -112 309 -127 57 -8 104 7 196 63 102 61 283 207 421 339 27 26 59 56 72
67 l22 20 -5 -85 c-4 -47 -13 -134 -21 -195 -26 -202 -30 -240 -30 -324 l-1
-85 41 -12 c44 -13 75 -17 219 -33 228 -26 416 -31 585 -18 107 9 272 26 309
32 13 2 43 7 67 11 68 10 76 21 75 95 -1 35 -3 80 -6 99 -2 19 -7 58 -10 85
-9 73 -25 205 -31 245 -2 19 -7 68 -10 109 -7 89 -19 95 171 -84 55 -52 198
-168 270 -220 157 -112 208 -127 330 -95 90 24 240 94 249 116 3 9 -41 84
-112 186 -64 94 -147 216 -184 270 -121 178 -289 420 -426 613 -284 398 -409
554 -451 556 -9 0 -213 1 -454 2 l-437 2 -34 -31z"/>
</g>
</svg>
